<mxfile host="app.diagrams.net" agent="Mozilla/5.0 (Windows NT 10.0; Win64; x64) AppleWebKit/537.36 (KHTML, like Gecko) Chrome/135.0.0.0 Safari/537.36 OPR/120.0.0.0" version="28.1.1">
  <diagram name="Page-1" id="Dim2un99oAZnUDNCvWwE">
    <mxGraphModel dx="1001" dy="586" grid="1" gridSize="10" guides="1" tooltips="1" connect="1" arrows="1" fold="1" page="1" pageScale="1" pageWidth="827" pageHeight="1169" background="#ffffff" math="0" shadow="0">
      <root>
        <mxCell id="0" />
        <mxCell id="1" parent="0" />
        <mxCell id="8SrGArW3qfMzpDf_6zBt-3" value="&lt;span style=&quot;font-size: 28px;&quot;&gt;START MENU&lt;/span&gt;" style="text;html=1;align=center;verticalAlign=middle;whiteSpace=wrap;rounded=0;" vertex="1" parent="1">
          <mxGeometry x="30" y="30" width="200" height="80" as="geometry" />
        </mxCell>
        <mxCell id="8SrGArW3qfMzpDf_6zBt-4" value="&lt;font style=&quot;font-size: 15px;&quot;&gt;Start Menu Scene&lt;/font&gt;" style="strokeWidth=2;html=1;shape=mxgraph.flowchart.start_1;whiteSpace=wrap;" vertex="1" parent="1">
          <mxGeometry x="328" y="90" width="170" height="90" as="geometry" />
        </mxCell>
        <mxCell id="8SrGArW3qfMzpDf_6zBt-12" style="edgeStyle=orthogonalEdgeStyle;rounded=0;orthogonalLoop=1;jettySize=auto;html=1;exitX=1;exitY=0.5;exitDx=0;exitDy=0;exitPerimeter=0;entryX=0.5;entryY=0;entryDx=0;entryDy=0;" edge="1" parent="1" source="8SrGArW3qfMzpDf_6zBt-6" target="8SrGArW3qfMzpDf_6zBt-11">
          <mxGeometry relative="1" as="geometry" />
        </mxCell>
        <mxCell id="8SrGArW3qfMzpDf_6zBt-13" style="edgeStyle=orthogonalEdgeStyle;rounded=0;orthogonalLoop=1;jettySize=auto;html=1;exitX=0;exitY=0.5;exitDx=0;exitDy=0;exitPerimeter=0;entryX=0.5;entryY=0;entryDx=0;entryDy=0;" edge="1" parent="1" source="8SrGArW3qfMzpDf_6zBt-6" target="8SrGArW3qfMzpDf_6zBt-9">
          <mxGeometry relative="1" as="geometry" />
        </mxCell>
        <mxCell id="8SrGArW3qfMzpDf_6zBt-37" style="edgeStyle=orthogonalEdgeStyle;rounded=0;orthogonalLoop=1;jettySize=auto;html=1;" edge="1" parent="1" source="8SrGArW3qfMzpDf_6zBt-6" target="8SrGArW3qfMzpDf_6zBt-10">
          <mxGeometry relative="1" as="geometry" />
        </mxCell>
        <mxCell id="8SrGArW3qfMzpDf_6zBt-38" style="edgeStyle=orthogonalEdgeStyle;rounded=0;orthogonalLoop=1;jettySize=auto;html=1;exitX=0.5;exitY=1;exitDx=0;exitDy=0;exitPerimeter=0;entryX=0.5;entryY=0;entryDx=0;entryDy=0;" edge="1" parent="1" source="8SrGArW3qfMzpDf_6zBt-6" target="8SrGArW3qfMzpDf_6zBt-35">
          <mxGeometry relative="1" as="geometry" />
        </mxCell>
        <mxCell id="8SrGArW3qfMzpDf_6zBt-6" value="Title Screen" style="strokeWidth=2;html=1;shape=mxgraph.flowchart.decision;whiteSpace=wrap;" vertex="1" parent="1">
          <mxGeometry x="363" y="230" width="100" height="100" as="geometry" />
        </mxCell>
        <mxCell id="8SrGArW3qfMzpDf_6zBt-7" style="edgeStyle=orthogonalEdgeStyle;rounded=0;orthogonalLoop=1;jettySize=auto;html=1;exitX=0.5;exitY=1;exitDx=0;exitDy=0;exitPerimeter=0;entryX=0.5;entryY=0;entryDx=0;entryDy=0;entryPerimeter=0;" edge="1" parent="1" source="8SrGArW3qfMzpDf_6zBt-4" target="8SrGArW3qfMzpDf_6zBt-6">
          <mxGeometry relative="1" as="geometry" />
        </mxCell>
        <mxCell id="8SrGArW3qfMzpDf_6zBt-16" style="edgeStyle=orthogonalEdgeStyle;rounded=0;orthogonalLoop=1;jettySize=auto;html=1;exitX=0.5;exitY=1;exitDx=0;exitDy=0;entryX=0.5;entryY=0;entryDx=0;entryDy=0;" edge="1" parent="1" source="8SrGArW3qfMzpDf_6zBt-9" target="8SrGArW3qfMzpDf_6zBt-15">
          <mxGeometry relative="1" as="geometry" />
        </mxCell>
        <mxCell id="8SrGArW3qfMzpDf_6zBt-9" value="SETTING" style="rounded=1;whiteSpace=wrap;html=1;absoluteArcSize=1;arcSize=14;strokeWidth=2;" vertex="1" parent="1">
          <mxGeometry x="80" y="380" width="100" height="100" as="geometry" />
        </mxCell>
        <mxCell id="8SrGArW3qfMzpDf_6zBt-10" value="NEW GAME" style="rounded=1;whiteSpace=wrap;html=1;absoluteArcSize=1;arcSize=14;strokeWidth=2;direction=south;" vertex="1" parent="1">
          <mxGeometry x="263" y="380" width="100" height="100" as="geometry" />
        </mxCell>
        <mxCell id="8SrGArW3qfMzpDf_6zBt-11" value="EXIT GAME" style="rounded=1;whiteSpace=wrap;html=1;absoluteArcSize=1;arcSize=14;strokeWidth=2;" vertex="1" parent="1">
          <mxGeometry x="670" y="380" width="100" height="100" as="geometry" />
        </mxCell>
        <mxCell id="8SrGArW3qfMzpDf_6zBt-15" value="Setting Menu Flowchart" style="verticalLabelPosition=middle;verticalAlign=middle;shape=offPageConnector;rounded=0;size=0.5;labelPosition=center;align=center;rotation=90;html=1;whiteSpace=wrap;horizontal=0;" vertex="1" parent="1">
          <mxGeometry x="60" y="550" width="95" height="110" as="geometry" />
        </mxCell>
        <mxCell id="8SrGArW3qfMzpDf_6zBt-20" value="Exit Application" style="strokeWidth=2;html=1;shape=mxgraph.flowchart.terminator;whiteSpace=wrap;" vertex="1" parent="1">
          <mxGeometry x="340" y="960" width="100" height="60" as="geometry" />
        </mxCell>
        <mxCell id="8SrGArW3qfMzpDf_6zBt-24" style="edgeStyle=orthogonalEdgeStyle;rounded=0;orthogonalLoop=1;jettySize=auto;html=1;exitX=0.5;exitY=1;exitDx=0;exitDy=0;exitPerimeter=0;" edge="1" parent="1" source="8SrGArW3qfMzpDf_6zBt-22">
          <mxGeometry relative="1" as="geometry">
            <mxPoint x="720.3333333333333" y="910" as="targetPoint" />
          </mxGeometry>
        </mxCell>
        <mxCell id="8SrGArW3qfMzpDf_6zBt-28" style="edgeStyle=orthogonalEdgeStyle;rounded=0;orthogonalLoop=1;jettySize=auto;html=1;exitX=0;exitY=0.5;exitDx=0;exitDy=0;exitPerimeter=0;" edge="1" parent="1" source="8SrGArW3qfMzpDf_6zBt-22">
          <mxGeometry relative="1" as="geometry">
            <mxPoint x="650" y="570" as="targetPoint" />
          </mxGeometry>
        </mxCell>
        <mxCell id="8SrGArW3qfMzpDf_6zBt-22" value="Confirm" style="strokeWidth=2;html=1;shape=mxgraph.flowchart.decision;whiteSpace=wrap;" vertex="1" parent="1">
          <mxGeometry x="670" y="640" width="100" height="100" as="geometry" />
        </mxCell>
        <mxCell id="8SrGArW3qfMzpDf_6zBt-23" style="edgeStyle=orthogonalEdgeStyle;rounded=0;orthogonalLoop=1;jettySize=auto;html=1;exitX=0.5;exitY=1;exitDx=0;exitDy=0;entryX=0.5;entryY=0;entryDx=0;entryDy=0;entryPerimeter=0;" edge="1" parent="1" source="8SrGArW3qfMzpDf_6zBt-11" target="8SrGArW3qfMzpDf_6zBt-22">
          <mxGeometry relative="1" as="geometry" />
        </mxCell>
        <mxCell id="8SrGArW3qfMzpDf_6zBt-25" value="Yes" style="text;html=1;align=center;verticalAlign=middle;resizable=0;points=[];autosize=1;strokeColor=none;fillColor=none;" vertex="1" parent="1">
          <mxGeometry x="700" y="908" width="40" height="30" as="geometry" />
        </mxCell>
        <mxCell id="8SrGArW3qfMzpDf_6zBt-27" style="edgeStyle=orthogonalEdgeStyle;rounded=0;orthogonalLoop=1;jettySize=auto;html=1;entryX=1;entryY=0.5;entryDx=0;entryDy=0;entryPerimeter=0;" edge="1" parent="1" source="8SrGArW3qfMzpDf_6zBt-25" target="8SrGArW3qfMzpDf_6zBt-20">
          <mxGeometry relative="1" as="geometry">
            <Array as="points">
              <mxPoint x="720" y="990" />
            </Array>
          </mxGeometry>
        </mxCell>
        <mxCell id="8SrGArW3qfMzpDf_6zBt-29" value="No" style="text;html=1;align=center;verticalAlign=middle;resizable=0;points=[];autosize=1;strokeColor=none;fillColor=none;" vertex="1" parent="1">
          <mxGeometry x="630" y="538" width="40" height="30" as="geometry" />
        </mxCell>
        <mxCell id="8SrGArW3qfMzpDf_6zBt-34" style="edgeStyle=orthogonalEdgeStyle;rounded=0;orthogonalLoop=1;jettySize=auto;html=1;entryX=0.742;entryY=0.77;entryDx=0;entryDy=0;entryPerimeter=0;" edge="1" parent="1" source="8SrGArW3qfMzpDf_6zBt-29" target="8SrGArW3qfMzpDf_6zBt-6">
          <mxGeometry relative="1" as="geometry">
            <Array as="points">
              <mxPoint x="650" y="307" />
            </Array>
          </mxGeometry>
        </mxCell>
        <mxCell id="8SrGArW3qfMzpDf_6zBt-35" value="LOAD GAME" style="rounded=1;whiteSpace=wrap;html=1;absoluteArcSize=1;arcSize=14;strokeWidth=2;" vertex="1" parent="1">
          <mxGeometry x="463" y="380" width="100" height="100" as="geometry" />
        </mxCell>
        <mxCell id="8SrGArW3qfMzpDf_6zBt-59" style="edgeStyle=orthogonalEdgeStyle;rounded=0;orthogonalLoop=1;jettySize=auto;html=1;entryX=0.5;entryY=0;entryDx=0;entryDy=0;" edge="1" parent="1" source="8SrGArW3qfMzpDf_6zBt-39" target="8SrGArW3qfMzpDf_6zBt-51">
          <mxGeometry relative="1" as="geometry" />
        </mxCell>
        <mxCell id="8SrGArW3qfMzpDf_6zBt-39" value="LOAD MAIN GAME" style="strokeWidth=2;html=1;shape=mxgraph.flowchart.delay;whiteSpace=wrap;" vertex="1" parent="1">
          <mxGeometry x="329.5" y="835" width="97" height="60" as="geometry" />
        </mxCell>
        <mxCell id="8SrGArW3qfMzpDf_6zBt-42" style="edgeStyle=orthogonalEdgeStyle;rounded=0;orthogonalLoop=1;jettySize=auto;html=1;entryX=1;entryY=0.5;entryDx=0;entryDy=0;entryPerimeter=0;" edge="1" parent="1" source="8SrGArW3qfMzpDf_6zBt-35" target="8SrGArW3qfMzpDf_6zBt-39">
          <mxGeometry relative="1" as="geometry">
            <Array as="points">
              <mxPoint x="550" y="865" />
            </Array>
          </mxGeometry>
        </mxCell>
        <mxCell id="8SrGArW3qfMzpDf_6zBt-45" style="edgeStyle=orthogonalEdgeStyle;rounded=0;orthogonalLoop=1;jettySize=auto;html=1;entryX=0.52;entryY=0.14;entryDx=0;entryDy=0;entryPerimeter=0;" edge="1" parent="1" source="8SrGArW3qfMzpDf_6zBt-43" target="8SrGArW3qfMzpDf_6zBt-48">
          <mxGeometry relative="1" as="geometry">
            <mxPoint x="313" y="690" as="targetPoint" />
          </mxGeometry>
        </mxCell>
        <mxCell id="8SrGArW3qfMzpDf_6zBt-53" style="edgeStyle=orthogonalEdgeStyle;rounded=0;orthogonalLoop=1;jettySize=auto;html=1;exitX=0;exitY=0.5;exitDx=0;exitDy=0;exitPerimeter=0;entryX=0.619;entryY=-0.06;entryDx=0;entryDy=0;entryPerimeter=0;" edge="1" parent="1" source="8SrGArW3qfMzpDf_6zBt-43" target="8SrGArW3qfMzpDf_6zBt-55">
          <mxGeometry relative="1" as="geometry">
            <mxPoint x="240" y="640" as="targetPoint" />
            <Array as="points">
              <mxPoint x="328" y="580" />
              <mxPoint x="249" y="580" />
            </Array>
          </mxGeometry>
        </mxCell>
        <mxCell id="8SrGArW3qfMzpDf_6zBt-43" value="Tutorial?" style="strokeWidth=2;html=1;shape=mxgraph.flowchart.decision;whiteSpace=wrap;" vertex="1" parent="1">
          <mxGeometry x="328" y="538" width="100" height="100" as="geometry" />
        </mxCell>
        <mxCell id="8SrGArW3qfMzpDf_6zBt-44" style="edgeStyle=orthogonalEdgeStyle;rounded=0;orthogonalLoop=1;jettySize=auto;html=1;exitX=1;exitY=0.5;exitDx=0;exitDy=0;entryX=0.5;entryY=0;entryDx=0;entryDy=0;entryPerimeter=0;" edge="1" parent="1" source="8SrGArW3qfMzpDf_6zBt-10" target="8SrGArW3qfMzpDf_6zBt-43">
          <mxGeometry relative="1" as="geometry" />
        </mxCell>
        <mxCell id="8SrGArW3qfMzpDf_6zBt-48" value="NO" style="text;html=1;align=center;verticalAlign=middle;resizable=0;points=[];autosize=1;strokeColor=none;fillColor=none;" vertex="1" parent="1">
          <mxGeometry x="358" y="688" width="40" height="30" as="geometry" />
        </mxCell>
        <mxCell id="8SrGArW3qfMzpDf_6zBt-49" style="edgeStyle=orthogonalEdgeStyle;rounded=0;orthogonalLoop=1;jettySize=auto;html=1;entryX=0.5;entryY=0;entryDx=0;entryDy=0;entryPerimeter=0;" edge="1" parent="1" source="8SrGArW3qfMzpDf_6zBt-48" target="8SrGArW3qfMzpDf_6zBt-39">
          <mxGeometry relative="1" as="geometry" />
        </mxCell>
        <mxCell id="8SrGArW3qfMzpDf_6zBt-50" value="Tutorial Flowchart" style="verticalLabelPosition=middle;verticalAlign=middle;shape=offPageConnector;rounded=0;size=0.5;labelPosition=center;align=center;rotation=90;html=1;whiteSpace=wrap;horizontal=0;" vertex="1" parent="1">
          <mxGeometry x="60" y="688" width="95" height="110" as="geometry" />
        </mxCell>
        <mxCell id="8SrGArW3qfMzpDf_6zBt-51" value="Main Game Flowchart" style="verticalLabelPosition=middle;verticalAlign=middle;shape=offPageConnector;rounded=0;size=0.5;labelPosition=center;align=center;rotation=90;html=1;whiteSpace=wrap;horizontal=0;" vertex="1" parent="1">
          <mxGeometry x="60" y="810" width="95" height="110" as="geometry" />
        </mxCell>
        <mxCell id="8SrGArW3qfMzpDf_6zBt-58" style="edgeStyle=orthogonalEdgeStyle;rounded=0;orthogonalLoop=1;jettySize=auto;html=1;entryX=0.5;entryY=0;entryDx=0;entryDy=0;" edge="1" parent="1" source="8SrGArW3qfMzpDf_6zBt-52" target="8SrGArW3qfMzpDf_6zBt-50">
          <mxGeometry relative="1" as="geometry" />
        </mxCell>
        <mxCell id="8SrGArW3qfMzpDf_6zBt-52" value="LOAD TUTORIAL STATE" style="strokeWidth=2;html=1;shape=mxgraph.flowchart.delay;whiteSpace=wrap;" vertex="1" parent="1">
          <mxGeometry x="200" y="713" width="86.5" height="60" as="geometry" />
        </mxCell>
        <mxCell id="8SrGArW3qfMzpDf_6zBt-55" value="YES" style="text;html=1;align=center;verticalAlign=middle;resizable=0;points=[];autosize=1;strokeColor=none;fillColor=none;" vertex="1" parent="1">
          <mxGeometry x="218.25" y="640" width="50" height="30" as="geometry" />
        </mxCell>
        <mxCell id="8SrGArW3qfMzpDf_6zBt-57" style="edgeStyle=orthogonalEdgeStyle;rounded=0;orthogonalLoop=1;jettySize=auto;html=1;entryX=0.5;entryY=0;entryDx=0;entryDy=0;entryPerimeter=0;" edge="1" parent="1" source="8SrGArW3qfMzpDf_6zBt-55" target="8SrGArW3qfMzpDf_6zBt-52">
          <mxGeometry relative="1" as="geometry" />
        </mxCell>
      </root>
    </mxGraphModel>
  </diagram>
</mxfile>
